<?xml version="1.0" encoding="UTF-8" standalone="no"?>
<svg
   height="24px"
   viewBox="0 -960 960 960"
   width="24px"
   fill="#2196F3"
   version="1.1"
   id="svg1"
   sodipodi:docname="download.svg"
   xml:space="preserve"
   inkscape:version="1.4.3 (0d15f75042, 2025-12-25)"
   xmlns:inkscape="http://www.inkscape.org/namespaces/inkscape"
   xmlns:sodipodi="http://sodipodi.sourceforge.net/DTD/sodipodi-0.dtd"
   xmlns="http://www.w3.org/2000/svg"
   xmlns:svg="http://www.w3.org/2000/svg"><defs
     id="defs1"><inkscape:path-effect
       effect="powerclip"
       message=""
       id="path-effect2"
       is_visible="true"
       lpeversion="1"
       inverse="true"
       flatten="false"
       hide_clip="false" /><clipPath
       clipPathUnits="userSpaceOnUse"
       id="clipPath2"><circle
         style="display:none;fill:#ffffff;stroke-width:18.0873"
         id="circle2"
         cx="800"
         cy="-196.47705"
         r="248.57144"
         d="M 1048.5714,-196.47705 A 248.57144,248.57144 0 0 1 800,52.094391 248.57144,248.57144 0 0 1 551.42856,-196.47705 248.57144,248.57144 0 0 1 800,-445.04849 a 248.57144,248.57144 0 0 1 248.5714,248.57144 z" /><path
         id="lpe_path-effect2"
         style="fill:#ffffff;stroke-width:18.0873"
         class="powerclip"
         d="M 195,-925 H 805 V -35 H 195 Z m 853.5714,728.52295 A 248.57144,248.57144 0 0 0 800,-445.04849 248.57144,248.57144 0 0 0 551.42856,-196.47705 248.57144,248.57144 0 0 0 800,52.094391 248.57144,248.57144 0 0 0 1048.5714,-196.47705 Z" /></clipPath></defs><sodipodi:namedview
     id="namedview1"
     pagecolor="#ffffff"
     bordercolor="#000000"
     borderopacity="0.25"
     inkscape:showpageshadow="2"
     inkscape:pageopacity="0.0"
     inkscape:pagecheckerboard="0"
     inkscape:deskcolor="#d1d1d1"
     inkscape:zoom="35"
     inkscape:cx="12"
     inkscape:cy="12"
     inkscape:window-width="1920"
     inkscape:window-height="1043"
     inkscape:window-x="0"
     inkscape:window-y="0"
     inkscape:window-maximized="1"
     inkscape:current-layer="svg1" /><path
     d="M 280,-40 Q 247,-40 223.5,-63.5 200,-87 200,-120 v -720 q 0,-33 23.5,-56.5 Q 247,-920 280,-920 h 400 q 33,0 56.5,23.5 23.5,23.5 23.5,56.5 v 124 q 18,7 29,22 11,15 11,34 v 80 q 0,19 -11,34 -11,15 -29,22 v 404 q 0,33 -23.5,56.5 Q 713,-40 680,-40 Z m 0,-80 H 680 V -840 H 280 Z m 0,0 v -720 z m 200,-200 160,-160 -56,-56 -64,62 v -166 h -80 v 166 l -64,-62 -56,56 z"
     id="path1"
     clip-path="url(#clipPath2)"
     inkscape:path-effect="#path-effect2"
     inkscape:original-d="M 280,-40 Q 247,-40 223.5,-63.5 200,-87 200,-120 v -720 q 0,-33 23.5,-56.5 Q 247,-920 280,-920 h 400 q 33,0 56.5,23.5 23.5,23.5 23.5,56.5 v 124 q 18,7 29,22 11,15 11,34 v 80 q 0,19 -11,34 -11,15 -29,22 v 404 q 0,33 -23.5,56.5 Q 713,-40 680,-40 Z m 0,-80 H 680 V -840 H 280 Z m 0,0 v -720 z m 200,-200 160,-160 -56,-56 -64,62 v -166 h -80 v 166 l -64,-62 -56,56 z" /><g
     style="fill:#2196f3"
     id="g1"
     transform="matrix(0.491481,0,0,0.491481,549.23198,10.175623)"><path
       d="m 424,-303.72267 q 0,-81 14.5,-116.5 14.5,-35.5 61.5,-77.5 41,-36 62.5,-62.5 21.5,-26.5 21.5,-60.5 0,-41 -27.5,-68 -27.5,-27 -76.5,-27 -51,0 -77.5,31 -26.5,31 -37.5,63 l -103,-44 q 21,-64 77,-111 56,-47 141,-47 105,0 161.5,58.5 56.5,58.5 56.5,140.5 0,50 -21.5,85.5 -21.5,35.5 -67.5,80.5 -49,47 -59.5,71.5 -10.5,24.5 -10.5,83.5 z m 56,240.000003 q -33,0 -56.5,-23.5 -23.5,-23.500003 -23.5,-56.500003 0,-33 23.5,-56.5 23.5,-23.5 56.5,-23.5 33,0 56.5,23.5 23.5,23.5 23.5,56.5 0,33 -23.5,56.500003 -23.5,23.5 -56.5,23.5 z"
       id="path1-5" /></g></svg>
