<?xml version="1.0" encoding="UTF-8" standalone="no"?>
<!-- Created with Inkscape (http://www.inkscape.org/) -->

<svg
   width="200"
   height="10"
   viewBox="0 0 52.916665 2.6458333"
   version="1.1"
   id="svg1"
   xml:space="preserve"
   inkscape:version="1.4.3 (0d15f75042, 2025-12-25)"
   sodipodi:docname="wavy.svg"
   xmlns:inkscape="http://www.inkscape.org/namespaces/inkscape"
   xmlns:sodipodi="http://sodipodi.sourceforge.net/DTD/sodipodi-0.dtd"
   xmlns="http://www.w3.org/2000/svg"
   xmlns:svg="http://www.w3.org/2000/svg"><sodipodi:namedview
     id="namedview1"
     pagecolor="#ffffff"
     bordercolor="#000000"
     borderopacity="0.25"
     inkscape:showpageshadow="2"
     inkscape:pageopacity="0.0"
     inkscape:pagecheckerboard="0"
     inkscape:deskcolor="#d1d1d1"
     inkscape:document-units="mm"
     inkscape:zoom="4.2331174"
     inkscape:cx="69.570478"
     inkscape:cy="23.38702"
     inkscape:window-width="1920"
     inkscape:window-height="1043"
     inkscape:window-x="0"
     inkscape:window-y="0"
     inkscape:window-maximized="1"
     inkscape:current-layer="layer1" /><defs
     id="defs1" /><g
     inkscape:label="Layer 1"
     inkscape:groupmode="layer"
     id="layer1"><path
       style="fill:#b050ff;fill-opacity:1;stroke-width:0.499319"
       d="M 2.8585023,2.4674257 C 2.5991803,2.3742257 2.1014916,2.0787987 1.7525272,1.8109267 1.4035629,1.5430497 0.98490994,1.3238817 0.82218811,1.3238817 c -0.16272084,0 -0.42994875,-0.109161 -0.59383935,-0.242579 -0.36425683,-0.29652804 -0.27729426,-0.88361804 0.15113458,-1.02032004 0.44957615,-0.14345 1.36032266,0.191653 2.02770616,0.746086 0.8729907,0.72524204 1.482589,0.72117704 2.4577652,-0.01637 1.1685059,-0.883789 2.2574676,-0.993225 3.1724217,-0.318818 0.9630965,0.70989904 1.2422051,0.85103104 1.68302,0.85103104 0.4408146,0 0.7199246,-0.141132 1.6830206,-0.85103104 0.914955,-0.674407 2.003915,-0.564971 3.172421,0.318818 0.972776,0.73575104 1.585291,0.74120404 2.451231,0.02182 0.560505,-0.465642 1.333179,-0.814403 1.800112,-0.8125109989797 C 19.306585,0.00200766 20.046438,0.32096866 20.678056,0.79808566 c 0.956573,0.72258504 1.504355,0.72221404 2.462638,-0.0015 1.231105,-0.929963 2.305243,-1.002076 3.327271,-0.223379 1.267832,0.96597404 1.734881,1.00263704 2.772745,0.217652 1.168507,-0.883789 2.257471,-0.993225 3.172425,-0.318818 1.002525,0.73896104 1.236005,0.85104604 1.773824,0.85152604 0.453976,4.06e-4 0.658885,-0.09253 1.154169,-0.52348104 1.188294,-1.033943 2.257018,-1.03585 3.629374,-0.0065 0.920489,0.69043804 1.60924,0.73086604 2.285284,0.134129 0.565131,-0.498836 1.482585,-0.922484 1.997746,-0.922484 0.49969,0 1.30101,0.369338 1.961584,0.90413 0.750871,0.60788604 1.388055,0.57708704 2.299136,-0.111134 0.631615,-0.477117 1.371469,-0.796135 1.850874,-0.79807799898 0.456765,-0.002000001 1.248676,0.34591799898 1.729101,0.75933299898 0.296599,0.25523004 0.798934,0.52034304 1.151905,0.60793204 0.56299,0.1397 0.62993,0.196423 0.66561,0.563994 0.0238,0.245423 -0.04015,0.475265 -0.160146,0.575384 -0.312934,0.261093 -1.188429,0.04411 -1.892079,-0.468966 -1.304585,-0.951236 -1.65095,-0.980894 -2.683671,-0.229813 -1.427959,1.038534 -2.21877,1.061168 -3.610424,0.103329 -1.127311,-0.775904 -1.582191,-0.786598 -2.54431,-0.05982 -1.326196,1.001791 -2.359095,0.997971 -3.663275,-0.01357 -0.96619,-0.749385 -1.45365,-0.738786 -2.526109,0.05493 -1.319968,0.976879 -2.207582,0.964503 -3.543371,-0.04941 -1.010628,-0.767102 -1.462737,-0.758801 -2.528235,0.04641 -1.265013,0.955997 -2.263745,0.961459 -3.491375,0.01913 -1.01654,-0.780319 -1.72396,-0.81965 -2.436194,-0.135444 -0.433119,0.416073 -1.416162,0.868398 -1.895569,0.872202 -0.492812,0.004 -1.180399,-0.29819 -1.920526,-0.843811 -0.560169,-0.412959 -0.91788,-0.532233 -1.477228,-0.492572 -0.113731,0.0081 -0.525917,0.254039 -0.91597,0.546607 -1.32693,0.995297 -2.279189,1.007018 -3.553845,0.04371 -1.063538,-0.803735 -1.543105,-0.813833 -2.544717,-0.05358 -1.321245,1.002868 -2.1828543,1.018588 -3.5307094,0.06442 -1.1102453,-0.785962 -1.6027696,-0.795855 -2.562506,-0.05148 -1.0013139,0.776625 -1.6671028,0.934083 -2.5729803,0.608507 z"
       id="path1" /></g></svg>
